<?xml version="1.0" standalone="no"?>
<!DOCTYPE svg PUBLIC "-//W3C//DTD SVG 20010904//EN"
 "http://www.w3.org/TR/2001/REC-SVG-20010904/DTD/svg10.dtd">
<svg version="1.0" xmlns="http://www.w3.org/2000/svg"
 width="549.000000pt" height="549.000000pt" viewBox="0 0 549.000000 549.000000"
 preserveAspectRatio="xMidYMid meet">
<metadata>
Created by potrace 1.14, written by Peter Selinger 2001-2017
</metadata>
<g transform="translate(0.000000,549.000000) scale(0.100000,-0.100000)"
fill="#000000" stroke="none">
<path d="M2559 5486 c-2 -2 -35 -6 -74 -10 -122 -10 -262 -33 -375 -61 -11 -3
-29 -7 -41 -10 -11 -2 -29 -7 -39 -10 -10 -3 -27 -8 -38 -10 -34 -6 -202 -65
-292 -102 -152 -62 -449 -220 -458 -245 -2 -4 -8 -8 -13 -8 -13 0 -186 -128
-269 -198 -151 -130 -355 -354 -461 -507 -18 -27 -36 -52 -39 -55 -3 -3 -11
-16 -19 -30 -8 -14 -31 -52 -51 -85 -170 -278 -300 -632 -350 -945 -6 -41 -13
-86 -16 -100 -20 -124 -26 -507 -11 -635 45 -365 127 -646 273 -938 52 -105
161 -296 174 -307 3 -3 30 -40 59 -82 30 -43 57 -78 62 -78 5 0 9 -6 9 -14 0
-8 3 -16 8 -18 4 -1 27 -28 52 -58 83 -101 287 -298 385 -373 5 -4 21 -17 35
-29 31 -26 262 -178 310 -204 19 -10 37 -21 40 -24 10 -10 197 -99 280 -133
138 -56 316 -113 413 -133 10 -2 26 -5 35 -8 9 -3 31 -8 47 -11 17 -2 41 -7
55 -10 59 -12 151 -25 230 -32 108 -10 433 -10 525 0 39 4 93 10 120 13 119
13 351 69 515 124 229 76 494 213 705 364 39 28 72 53 75 56 3 3 14 13 26 21
88 59 322 289 419 409 33 41 63 76 67 78 5 2 8 8 8 14 0 5 6 16 13 23 31 35
43 52 106 153 164 259 306 593 355 832 3 14 8 36 11 50 13 54 43 239 51 310
11 97 11 464 1 555 -10 88 -26 188 -37 240 -5 22 -12 56 -15 75 -3 19 -11 53
-17 75 -6 22 -12 45 -13 50 -34 158 -181 503 -293 689 -23 37 -42 72 -42 76 0
5 -3 10 -7 12 -5 2 -21 22 -36 46 -15 23 -34 50 -42 60 -8 9 -31 40 -52 68
-86 115 -265 307 -363 389 -25 21 -65 54 -89 74 -24 20 -49 41 -55 47 -22 21
-255 174 -265 174 -6 0 -11 4 -11 9 0 5 -8 11 -17 14 -10 3 -49 23 -88 44
-162 90 -427 192 -614 239 -42 10 -155 34 -184 39 -18 3 -39 8 -47 10 -8 2
-46 7 -85 11 -38 3 -74 9 -79 12 -10 6 -461 13 -467 8z"/>
</g>
</svg>
